<?xml version="1.0" encoding="UTF-8" standalone="no"?>
<svg
   xmlns:dc="http://purl.org/dc/elements/1.1/"
   xmlns:cc="http://creativecommons.org/ns#"
   xmlns:rdf="http://www.w3.org/1999/02/22-rdf-syntax-ns#"
   xmlns:svg="http://www.w3.org/2000/svg"
   xmlns="http://www.w3.org/2000/svg"
   xmlns:sodipodi="http://sodipodi.sourceforge.net/DTD/sodipodi-0.dtd"
   xmlns:inkscape="http://www.inkscape.org/namespaces/inkscape"
   version="1.1"
   width="48"
   height="48"
   viewBox="0 0 48 48"
   enable-background="new 0 0 76.00 76.00"
   xml:space="preserve"
   id="svg2"
   inkscape:version="0.91 r13725"
   sodipodi:docname="appbar.folder.people.svg"><metadata
     id="metadata10"><rdf:RDF><cc:Work
         rdf:about=""><dc:format>image/svg+xml</dc:format><dc:type
           rdf:resource="http://purl.org/dc/dcmitype/StillImage" /><dc:title></dc:title></cc:Work></rdf:RDF></metadata><defs
     id="defs8" /><sodipodi:namedview
     pagecolor="#ffffff"
     bordercolor="#666666"
     borderopacity="1"
     objecttolerance="10"
     gridtolerance="10"
     guidetolerance="10"
     inkscape:pageopacity="0"
     inkscape:pageshadow="2"
     inkscape:window-width="1366"
     inkscape:window-height="711"
     id="namedview6"
     showgrid="false"
     inkscape:zoom="3.1052632"
     inkscape:cx="-8.6949153"
     inkscape:cy="38"
     inkscape:window-x="0"
     inkscape:window-y="0"
     inkscape:window-maximized="1"
     inkscape:current-layer="svg2" /><path
     d="m 38.926434,19.675792 c 2.388723,0 4.325159,1.936435 4.325159,4.325159 0,2.388724 -1.936436,4.325159 -4.325159,4.325159 -2.388724,0 -4.32516,-1.936435 -4.32516,-4.325159 0,-2.388724 1.936436,-4.325159 4.32516,-4.325159 z m 3.089399,9.886078 c 0,0 4.496065,0 5.984167,9.648071 -0.669658,0.51457 -1.446828,0.971183 -2.309882,1.355999 -0.106152,-1.470553 -0.553373,-4.793758 -2.438525,-6.678911 l 0,7.513049 c -1.221672,0.30585 -2.272068,0.486024 -4.325159,0.515189 l 0,0.0023 c -2.182476,-0.02039 -3.260182,-0.20217 -4.519792,-0.517536 l 1.24e-4,-7.513048 c -1.885152,1.885152 -2.332497,5.208356 -2.438525,6.678911 -0.863178,-0.384816 -1.640348,-0.84143 -2.310006,-1.356 1.488102,-9.648071 5.984167,-9.648071 5.984167,-9.648071 l 3.284032,0 3.089399,0 z M 0,13.497116 l 43.251469,0 0,7.008118 c -1.019501,-1.259734 -2.578165,-2.065202 -4.325035,-2.065202 -3.071234,0 -5.560919,2.489685 -5.560919,5.560919 0,1.706955 0.769013,3.23423 1.979563,4.25435 -4.642749,-0.404712 -6.76183,6.963136 -7.553458,9.956887 L 0,38.212188 0,13.497116 Z m 38.308554,-2.471643 -18.536397,0 c 1.23576,-3.7072792 3.089276,-4.9429155 3.089276,-4.9429155 l 13.902421,-1.24e-4 c 0.682387,0 1.5447,0.8623137 1.5447,1.5447002 l 0,3.3983393 z"
     id="path4"
     inkscape:connector-curvature="0"
     style="fill:#f0ffff;fill-opacity:1;stroke-width:0.2;stroke-linejoin:round" /></svg>